*
G04 Mass Parameters ***
*
G04 Image ***
*
%INC:\LCMS2012\PCB\LAYOUT\GERBER23\LCMS2012_JAN_PCB-23.SST*%
%ICAS*%
%MOIN*%
%IPPOS*%
%ASAXBY*%
G74*%FSLAN2X34Y34*%
*
G04 Aperture Definitions ***
*
%AMTHERMAL49*
1,1,0.1079,0,0,*
1,0,0.0840,0,0,*
21,0,0.1080,0.0100,0,0,45.0*
21,0,0.1080,0.0100,0,0,135.0*%
%AMTHERMAL52*
1,1,0.1019,0,0,*
1,0,0.0780,0,0,*
21,0,0.1020,0.0100,0,0,45.0*
21,0,0.1020,0.0100,0,0,135.0*%
%AMTHERMAL53*
1,1,0.0879,0,0,*
1,0,0.0640,0,0,*
21,0,0.0880,0.0100,0,0,45.0*
21,0,0.0880,0.0100,0,0,135.0*%
%AMTHERMAL57*
1,1,0.1079,0,0,*
1,0,0.0840,0,0,*
21,0,0.1080,0.0100,0,0,225.0*
21,0,0.1080,0.0100,0,0,315.0*%
%AMTHERMAL59*
1,1,0.1019,0,0,*
1,0,0.0780,0,0,*
21,0,0.1020,0.0100,0,0,216.2*
21,0,0.1020,0.0100,0,0,306.2*%
%ADD10C,0.1060*%
%ADD11R,0.0500X0.0500*%
%ADD12C,0.0550*%
%ADD13R,0.0550X0.0550*%
%ADD14O,0.0078X0.0984*%
%ADD15O,0.0984X0.0078*%
%ADD16R,0.0984X0.0078*%
%ADD17O,0.0472X0.0120*%
%ADD18R,0.0472X0.0120*%
%ADD19O,0.0590X0.0130*%
%ADD20R,0.0590X0.0130*%
%ADD21C,0.0394*%
%ADD22C,0.0500*%
%ADD23C,0.0280*%
%ADD24C,0.0100*%
%ADD25C,0.0500*%
%ADD26C,0.0120*%
%ADD27C,0.0500*%
%ADD28C,0.0090*%
%ADD29C,0.0080*%
%ADD30C,0.0300*%
%ADD31C,0.0160*%
%ADD32C,0.0140*%
%ADD33C,0.0130*%
%ADD34C,0.1060*%
%ADD35R,0.0860X0.0860*%
%ADD36R,0.0500X0.0500*%
%ADD37C,0.0550*%
%ADD38R,0.0550X0.0550*%
%ADD39C,0.0394*%
%ADD40R,0.0180X0.0800*%
%ADD41C,0.0500*%
%ADD42C,0.0280*%
%ADD43C,0.0200*%
%ADD44C,0.1140*%
%ADD45C,0.0750*%
%ADD46R,0.0750X0.0750*%
%ADD47C,0.0550*%
%ADD48R,0.0550X0.0550*%
%ADD49THERMAL49*%
%ADD50C,0.0750*%
%ADD51C,0.0708*%
%ADD52THERMAL52*%
%ADD53THERMAL53*%
%ADD54C,0.0400*%
%ADD55C,0.0750*%
%ADD56C,0.1140*%
%ADD57THERMAL57*%
%ADD58C,0.0340*%
%ADD59THERMAL59*%
%ADD60C,0.1110*%
%ADD61R,0.0500X0.0500*%
%ADD62C,0.0550*%
%ADD63R,0.0550X0.0550*%
%ADD64O,0.0078X0.0984*%
%ADD65O,0.0984X0.0078*%
%ADD66R,0.0984X0.0078*%
%ADD67O,0.0472X0.0120*%
%ADD68R,0.0472X0.0120*%
%ADD69O,0.0590X0.0130*%
%ADD70R,0.0590X0.0130*%
%ADD71C,0.0394*%
%ADD72C,0.0550*%
%ADD73C,0.1110*%
%ADD74C,0.0010*%
%ADD75C,0.0060*%
%ADD76C,0.0039*%
%ADD77C,0.0020*%
%ADD78C,0.0098*%
*
G04 Plot Data ***
*
G54D24*
G01X0001602Y0010861D02*
Y0010527D01*
X0001268Y0010861D01*
X0001185D01*
X0001102Y0010819D01*
Y0010569D01*
X0001185Y0010527D01*
X0001602Y0010286D02*
Y0010119D01*
Y0010202D02*
X0001102D01*
X0001185Y0010119D01*
X0001352Y0009794D02*
Y0009461D01*
X0001435Y0009219D02*
Y0008886D01*
X0001102Y0009052D01*
Y0009136D01*
X0001602D01*
Y0008436D02*
X0001518Y0008352D01*
X0001435Y0008311D01*
X0001268D01*
X0001185Y0008352D01*
X0001102Y0008436D01*
Y0008519D01*
X0001185Y0008602D01*
X0001268Y0008644D01*
X0001435D01*
X0001518Y0008602D01*
X0001602Y0008519D01*
Y0008436D01*
X0001352Y0008069D02*
Y0007736D01*
X0001602Y0007494D02*
Y0007161D01*
X0001268Y0007494D01*
X0001185D01*
X0001102Y0007452D01*
Y0007202D01*
X0001185Y0007161D01*
X0001602Y0006919D02*
Y0006752D01*
Y0006836D02*
X0001102D01*
X0001185Y0006752D01*
X0001602Y0006219D02*
X0001518Y0006136D01*
X0001435Y0006094D01*
X0001268D01*
X0001185Y0006136D01*
X0001102Y0006219D01*
Y0006302D01*
X0001185Y0006386D01*
X0001268Y0006427D01*
X0001435D01*
X0001518Y0006386D01*
X0001602Y0006302D01*
Y0006219D01*
Y0005852D02*
Y0005519D01*
X0001268Y0005852D01*
X0001185D01*
X0001102Y0005811D01*
Y0005561D01*
X0001185Y0005519D01*
Y0004515D02*
X0001102Y0004473D01*
Y0004223D01*
X0001185Y0004182D01*
X0001268D01*
X0001352Y0004223D01*
Y0004473D01*
X0001435Y0004515D01*
X0001518D01*
X0001602Y0004473D01*
Y0004223D01*
X0001518Y0004182D01*
X0001602Y0003940D02*
X0001102D01*
X0001185Y0003857D01*
X0001352Y0003773D01*
X0001185Y0003690D01*
X0001102Y0003607D01*
X0001602D01*
X0001518Y0003365D02*
X0001602Y0003323D01*
Y0003073D01*
X0001518Y0003032D01*
X0001185D01*
X0001102Y0003073D01*
Y0003323D01*
X0001185Y0003365D01*
X0001602Y0002790D02*
Y0002498D01*
X0001102D01*
X0000432Y0010841D02*
X0000932D01*
X0000848Y0010757D01*
X0000515Y0010591D01*
X0000432Y0010507D01*
X0000932D01*
Y0010266D02*
Y0010099D01*
Y0010182D02*
X0000432D01*
Y0010266D02*
Y0010099D01*
X0000682Y0009691D02*
Y0009441D01*
X0000932Y0009774D02*
Y0009441D01*
X0000432D01*
Y0009774D01*
X0000932Y0009032D02*
X0000432D01*
Y0009199D02*
Y0008866D01*
X0000515Y0008624D02*
X0000432Y0008582D01*
Y0008332D01*
X0000515Y0008291D01*
X0000598D01*
X0000682Y0008332D01*
Y0008582D01*
X0000765Y0008624D01*
X0000848D01*
X0000932Y0008582D01*
Y0008332D01*
X0000848Y0008291D01*
X0000932Y0007757D02*
X0000432D01*
X0000932Y0007716D02*
Y0007966D01*
X0000765Y0008049D01*
X0000598D01*
X0000432Y0007966D01*
Y0007716D01*
X0000932Y0007474D02*
Y0007182D01*
X0000432D01*
X0000932Y0006649D02*
X0000848Y0006607D01*
X0000515D01*
X0000432Y0006649D01*
Y0006899D01*
X0000515Y0006941D01*
X0000848D01*
X0000932Y0006899D01*
Y0006649D01*
X0000682Y0006199D02*
Y0006366D01*
X0000848D01*
X0000932Y0006324D01*
Y0006074D01*
X0000848Y0006032D01*
X0000515D01*
X0000432Y0006074D01*
Y0006324D01*
X0000515Y0006366D01*
X0000432Y0005028D02*
X0000932D01*
X0000848Y0004945D01*
X0000515Y0004778D01*
X0000432Y0004695D01*
X0000932D01*
X0000765Y0004453D02*
Y0004120D01*
X0000932Y0004453D02*
X0000682D01*
X0000432Y0004328D01*
Y0004245D01*
X0000682Y0004120D01*
X0000932D01*
Y0003878D02*
Y0003712D01*
Y0003795D02*
X0000432D01*
Y0003878D02*
Y0003712D01*
X0000682Y0003262D02*
X0000932Y0003387D01*
X0000682Y0003053D02*
Y0003303D01*
X0000598Y0003387D01*
X0000515D01*
X0000432Y0003303D01*
Y0003053D01*
X0000932D01*
Y0002520D02*
X0000432D01*
X0000932Y0002478D02*
Y0002728D01*
X0000848Y0002812D01*
X0000765D01*
X0000682Y0002770D01*
Y0002520D02*
Y0002770D01*
X0000598Y0002812D01*
X0000515D01*
X0000432Y0002728D01*
Y0002478D01*
G54D29*
G01X0011347Y0007850D02*
X0011402Y0007905D01*
Y0008016D01*
X0011347Y0008072D01*
X0011291D01*
X0011180Y0007961D01*
X0011069Y0008072D01*
Y0007850D01*
X0011402Y0007662D02*
Y0007551D01*
Y0007606D02*
X0011069D01*
X0011124Y0007551D01*
X0011291Y0007113D02*
X0011347D01*
X0011402Y0007141D01*
Y0007252D01*
X0011347Y0007280D01*
X0011069D01*
Y0007308D02*
Y0007196D01*
X0001182Y0012657D02*
X0001405D01*
X0001182Y0012435D01*
Y0012379D01*
X0001210Y0012324D01*
X0001377D01*
X0001405Y0012379D01*
X0001787Y0012546D02*
Y0012602D01*
X0001759Y0012657D01*
X0001648D01*
X0001620Y0012602D01*
Y0012324D01*
X0001592D02*
X0001703D01*
X0001405Y0014402D02*
X0001349Y0014457D01*
X0001238D01*
X0001182Y0014402D01*
Y0014346D01*
X0001293Y0014235D01*
X0001182Y0014124D01*
X0001405D01*
X0001787Y0014346D02*
Y0014402D01*
X0001759Y0014457D01*
X0001648D01*
X0001620Y0014402D01*
Y0014124D01*
X0001592D02*
X0001703D01*
X0002150Y0017960D02*
X0002200Y0018010D01*
Y0019010D01*
X0006200D01*
Y0018010D01*
X0002200D01*
X0012620Y0006650D02*
Y0008650D01*
X0011620D01*
Y0006650D01*
X0012620D01*
X0012670Y0006600D01*
X0002150Y0000630D02*
X0002200Y0000680D01*
Y0001680D01*
X0006200D01*
Y0000680D01*
X0002200D01*
G54D74*
G01X0015734Y0004641D02*
X0017466D01*
Y0006610D01*
X0015734D01*
Y0004641D01*
X0027483Y0012249D02*
Y0012151D01*
X0027474Y0012228D02*
Y0012172D01*
X0027607Y0012293D02*
X0027533D01*
X0027624Y0012284D02*
X0027516D01*
X0027636Y0012275D02*
X0027504D01*
X0027645Y0012266D02*
X0027495D01*
X0027652Y0012257D02*
X0027488D01*
X0027658Y0012248D02*
X0027482D01*
X0027662Y0012239D02*
X0027478D01*
X0027665Y0012230D02*
X0027474D01*
X0027668Y0012221D02*
X0027472D01*
X0027669Y0012212D02*
X0027471D01*
X0027670Y0012203D02*
X0027470D01*
X0027670Y0012194D02*
X0027470D01*
X0027669Y0012185D02*
X0027471D01*
X0027667Y0012176D02*
X0027473D01*
X0027664Y0012167D02*
X0027475D01*
X0027661Y0012158D02*
X0027479D01*
X0027656Y0012149D02*
X0027484D01*
X0027650Y0012140D02*
X0027490D01*
X0027642Y0012131D02*
X0027497D01*
X0027632Y0012122D02*
X0027507D01*
X0027619Y0012113D02*
X0027521D01*
X0027663Y0012237D02*
Y0012163D01*
X0027654Y0012254D02*
Y0012146D01*
X0027645Y0012266D02*
Y0012134D01*
X0027636Y0012275D02*
Y0012125D01*
X0027627Y0012282D02*
Y0012118D01*
X0027618Y0012288D02*
Y0012112D01*
X0027609Y0012292D02*
Y0012108D01*
X0027600Y0012295D02*
Y0012104D01*
X0027591Y0012298D02*
Y0012102D01*
X0027582Y0012299D02*
Y0012101D01*
X0027573Y0012300D02*
Y0012100D01*
X0027564Y0012300D02*
Y0012100D01*
X0027555Y0012299D02*
Y0012101D01*
X0027546Y0012297D02*
Y0012103D01*
X0027537Y0012294D02*
Y0012105D01*
X0027528Y0012291D02*
Y0012109D01*
X0027519Y0012286D02*
Y0012114D01*
X0027510Y0012280D02*
Y0012120D01*
X0027501Y0012272D02*
Y0012127D01*
X0027492Y0012262D02*
Y0012137D01*
X0027598Y0012104D02*
X0027542D01*
X0027483Y0013089D02*
Y0012991D01*
X0027474Y0013068D02*
Y0013012D01*
X0027607Y0013133D02*
X0027533D01*
X0027624Y0013124D02*
X0027516D01*
X0027636Y0013115D02*
X0027504D01*
X0027645Y0013106D02*
X0027495D01*
X0027652Y0013097D02*
X0027488D01*
X0027658Y0013088D02*
X0027482D01*
X0027662Y0013079D02*
X0027478D01*
X0027665Y0013070D02*
X0027474D01*
X0027668Y0013061D02*
X0027472D01*
X0027669Y0013052D02*
X0027471D01*
X0027670Y0013043D02*
X0027470D01*
X0027670Y0013034D02*
X0027470D01*
X0027669Y0013025D02*
X0027471D01*
X0027667Y0013016D02*
X0027473D01*
X0027664Y0013007D02*
X0027475D01*
X0027661Y0012998D02*
X0027479D01*
X0027656Y0012989D02*
X0027484D01*
X0027650Y0012980D02*
X0027490D01*
X0027642Y0012971D02*
X0027497D01*
X0027632Y0012962D02*
X0027507D01*
X0027619Y0012953D02*
X0027521D01*
X0027663Y0013077D02*
Y0013003D01*
X0027654Y0013094D02*
Y0012986D01*
X0027645Y0013106D02*
Y0012974D01*
X0027636Y0013115D02*
Y0012965D01*
X0027627Y0013122D02*
Y0012958D01*
X0027618Y0013128D02*
Y0012952D01*
X0027609Y0013132D02*
Y0012948D01*
X0027600Y0013135D02*
Y0012944D01*
X0027591Y0013138D02*
Y0012942D01*
X0027582Y0013139D02*
Y0012941D01*
X0027573Y0013140D02*
Y0012940D01*
X0027564Y0013140D02*
Y0012940D01*
X0027555Y0013139D02*
Y0012941D01*
X0027546Y0013137D02*
Y0012943D01*
X0027537Y0013134D02*
Y0012945D01*
X0027528Y0013131D02*
Y0012949D01*
X0027519Y0013126D02*
Y0012954D01*
X0027510Y0013120D02*
Y0012960D01*
X0027501Y0013112D02*
Y0012967D01*
X0027492Y0013102D02*
Y0012977D01*
X0027598Y0012944D02*
X0027542D01*
X0022340Y0004621D02*
X0024072D01*
Y0006590D01*
X0022340D01*
Y0004621D01*
X0028753Y0008469D02*
Y0008371D01*
X0028744Y0008448D02*
Y0008392D01*
X0028877Y0008513D02*
X0028803D01*
X0028894Y0008504D02*
X0028786D01*
X0028906Y0008495D02*
X0028774D01*
X0028915Y0008486D02*
X0028765D01*
X0028922Y0008477D02*
X0028758D01*
X0028928Y0008468D02*
X0028752D01*
X0028932Y0008459D02*
X0028748D01*
X0028935Y0008450D02*
X0028744D01*
X0028938Y0008441D02*
X0028742D01*
X0028939Y0008432D02*
X0028741D01*
X0028940Y0008423D02*
X0028740D01*
X0028940Y0008414D02*
X0028740D01*
X0028939Y0008405D02*
X0028741D01*
X0028937Y0008396D02*
X0028743D01*
X0028934Y0008387D02*
X0028745D01*
X0028931Y0008378D02*
X0028749D01*
X0028926Y0008369D02*
X0028754D01*
X0028920Y0008360D02*
X0028760D01*
X0028912Y0008351D02*
X0028767D01*
X0028902Y0008342D02*
X0028777D01*
X0028889Y0008333D02*
X0028791D01*
X0028933Y0008457D02*
Y0008383D01*
X0028924Y0008474D02*
Y0008366D01*
X0028915Y0008486D02*
Y0008354D01*
X0028906Y0008495D02*
Y0008345D01*
X0028897Y0008502D02*
Y0008338D01*
X0028888Y0008508D02*
Y0008332D01*
X0028879Y0008512D02*
Y0008328D01*
X0028870Y0008515D02*
Y0008324D01*
X0028861Y0008518D02*
Y0008322D01*
X0028852Y0008519D02*
Y0008321D01*
X0028843Y0008520D02*
Y0008320D01*
X0028834Y0008520D02*
Y0008320D01*
X0028825Y0008519D02*
Y0008321D01*
X0028816Y0008517D02*
Y0008323D01*
X0028807Y0008514D02*
Y0008325D01*
X0028798Y0008511D02*
Y0008329D01*
X0028789Y0008506D02*
Y0008334D01*
X0028780Y0008500D02*
Y0008340D01*
X0028771Y0008492D02*
Y0008347D01*
X0028762Y0008482D02*
Y0008357D01*
X0028868Y0008324D02*
X0028812D01*
X0013663Y0012479D02*
Y0012381D01*
X0013654Y0012458D02*
Y0012402D01*
X0013787Y0012523D02*
X0013713D01*
X0013804Y0012514D02*
X0013696D01*
X0013816Y0012505D02*
X0013684D01*
X0013825Y0012496D02*
X0013675D01*
X0013832Y0012487D02*
X0013668D01*
X0013838Y0012478D02*
X0013662D01*
X0013842Y0012469D02*
X0013658D01*
X0013845Y0012460D02*
X0013654D01*
X0013848Y0012451D02*
X0013652D01*
X0013849Y0012442D02*
X0013651D01*
X0013850Y0012433D02*
X0013650D01*
X0013850Y0012424D02*
X0013650D01*
X0013849Y0012415D02*
X0013651D01*
X0013847Y0012406D02*
X0013653D01*
X0013844Y0012397D02*
X0013655D01*
X0013841Y0012388D02*
X0013659D01*
X0013836Y0012379D02*
X0013664D01*
X0013830Y0012370D02*
X0013670D01*
X0013822Y0012361D02*
X0013677D01*
X0013812Y0012352D02*
X0013687D01*
X0013799Y0012343D02*
X0013701D01*
X0013843Y0012467D02*
Y0012393D01*
X0013834Y0012484D02*
Y0012376D01*
X0013825Y0012496D02*
Y0012364D01*
X0013816Y0012505D02*
Y0012355D01*
X0013807Y0012512D02*
Y0012348D01*
X0013798Y0012518D02*
Y0012342D01*
X0013789Y0012522D02*
Y0012338D01*
X0013780Y0012525D02*
Y0012334D01*
X0013771Y0012528D02*
Y0012332D01*
X0013762Y0012529D02*
Y0012331D01*
X0013753Y0012530D02*
Y0012330D01*
X0013744Y0012530D02*
Y0012330D01*
X0013735Y0012529D02*
Y0012331D01*
X0013726Y0012527D02*
Y0012333D01*
X0013717Y0012524D02*
Y0012335D01*
X0013708Y0012521D02*
Y0012339D01*
X0013699Y0012516D02*
Y0012344D01*
X0013690Y0012510D02*
Y0012350D01*
X0013681Y0012502D02*
Y0012357D01*
X0013672Y0012492D02*
Y0012367D01*
X0013778Y0012334D02*
X0013722D01*
X0027483Y0010569D02*
Y0010471D01*
X0027474Y0010548D02*
Y0010492D01*
X0027607Y0010613D02*
X0027533D01*
X0027624Y0010604D02*
X0027516D01*
X0027636Y0010595D02*
X0027504D01*
X0027645Y0010586D02*
X0027495D01*
X0027652Y0010577D02*
X0027488D01*
X0027658Y0010568D02*
X0027482D01*
X0027662Y0010559D02*
X0027478D01*
X0027665Y0010550D02*
X0027474D01*
X0027668Y0010541D02*
X0027472D01*
X0027669Y0010532D02*
X0027471D01*
X0027670Y0010523D02*
X0027470D01*
X0027670Y0010514D02*
X0027470D01*
X0027669Y0010505D02*
X0027471D01*
X0027667Y0010496D02*
X0027473D01*
X0027664Y0010487D02*
X0027475D01*
X0027661Y0010478D02*
X0027479D01*
X0027656Y0010469D02*
X0027484D01*
X0027650Y0010460D02*
X0027490D01*
X0027642Y0010451D02*
X0027497D01*
X0027632Y0010442D02*
X0027507D01*
X0027619Y0010433D02*
X0027521D01*
X0027663Y0010557D02*
Y0010483D01*
X0027654Y0010574D02*
Y0010466D01*
X0027645Y0010586D02*
Y0010454D01*
X0027636Y0010595D02*
Y0010445D01*
X0027627Y0010602D02*
Y0010438D01*
X0027618Y0010608D02*
Y0010432D01*
X0027609Y0010612D02*
Y0010428D01*
X0027600Y0010615D02*
Y0010424D01*
X0027591Y0010618D02*
Y0010422D01*
X0027582Y0010619D02*
Y0010421D01*
X0027573Y0010620D02*
Y0010420D01*
X0027564Y0010620D02*
Y0010420D01*
X0027555Y0010619D02*
Y0010421D01*
X0027546Y0010617D02*
Y0010423D01*
X0027537Y0010614D02*
Y0010425D01*
X0027528Y0010611D02*
Y0010429D01*
X0027519Y0010606D02*
Y0010434D01*
X0027510Y0010600D02*
Y0010440D01*
X0027501Y0010592D02*
Y0010447D01*
X0027492Y0010582D02*
Y0010457D01*
X0027598Y0010424D02*
X0027542D01*
X0027483Y0008889D02*
Y0008791D01*
X0027474Y0008868D02*
Y0008812D01*
X0027607Y0008933D02*
X0027533D01*
X0027624Y0008924D02*
X0027516D01*
X0027636Y0008915D02*
X0027504D01*
X0027645Y0008906D02*
X0027495D01*
X0027652Y0008897D02*
X0027488D01*
X0027658Y0008888D02*
X0027482D01*
X0027662Y0008879D02*
X0027478D01*
X0027665Y0008870D02*
X0027474D01*
X0027668Y0008861D02*
X0027472D01*
X0027669Y0008852D02*
X0027471D01*
X0027670Y0008843D02*
X0027470D01*
X0027670Y0008834D02*
X0027470D01*
X0027669Y0008825D02*
X0027471D01*
X0027667Y0008816D02*
X0027473D01*
X0027664Y0008807D02*
X0027475D01*
X0027661Y0008798D02*
X0027479D01*
X0027656Y0008789D02*
X0027484D01*
X0027650Y0008780D02*
X0027490D01*
X0027642Y0008771D02*
X0027497D01*
X0027632Y0008762D02*
X0027507D01*
X0027619Y0008753D02*
X0027521D01*
X0027663Y0008877D02*
Y0008803D01*
X0027654Y0008894D02*
Y0008786D01*
X0027645Y0008906D02*
Y0008774D01*
X0027636Y0008915D02*
Y0008765D01*
X0027627Y0008922D02*
Y0008758D01*
X0027618Y0008928D02*
Y0008752D01*
X0027609Y0008932D02*
Y0008748D01*
X0027600Y0008935D02*
Y0008744D01*
X0027591Y0008938D02*
Y0008742D01*
X0027582Y0008939D02*
Y0008741D01*
X0027573Y0008940D02*
Y0008740D01*
X0027564Y0008940D02*
Y0008740D01*
X0027555Y0008939D02*
Y0008741D01*
X0027546Y0008937D02*
Y0008743D01*
X0027537Y0008934D02*
Y0008745D01*
X0027528Y0008931D02*
Y0008749D01*
X0027519Y0008926D02*
Y0008754D01*
X0027510Y0008920D02*
Y0008760D01*
X0027501Y0008912D02*
Y0008767D01*
X0027492Y0008902D02*
Y0008777D01*
X0027598Y0008744D02*
X0027542D01*
X0027483Y0008049D02*
Y0007951D01*
X0027474Y0008028D02*
Y0007972D01*
X0027607Y0008093D02*
X0027533D01*
X0027624Y0008084D02*
X0027516D01*
X0027636Y0008075D02*
X0027504D01*
X0027645Y0008066D02*
X0027495D01*
X0027652Y0008057D02*
X0027488D01*
X0027658Y0008048D02*
X0027482D01*
X0027662Y0008039D02*
X0027478D01*
X0027665Y0008030D02*
X0027474D01*
X0027668Y0008021D02*
X0027472D01*
X0027669Y0008012D02*
X0027471D01*
X0027670Y0008003D02*
X0027470D01*
X0027670Y0007994D02*
X0027470D01*
X0027669Y0007985D02*
X0027471D01*
X0027667Y0007976D02*
X0027473D01*
X0027664Y0007967D02*
X0027475D01*
X0027661Y0007958D02*
X0027479D01*
X0027656Y0007949D02*
X0027484D01*
X0027650Y0007940D02*
X0027490D01*
X0027642Y0007931D02*
X0027497D01*
X0027632Y0007922D02*
X0027507D01*
X0027619Y0007913D02*
X0027521D01*
X0027663Y0008037D02*
Y0007963D01*
X0027654Y0008054D02*
Y0007946D01*
X0027645Y0008066D02*
Y0007934D01*
X0027636Y0008075D02*
Y0007925D01*
X0027627Y0008082D02*
Y0007918D01*
X0027618Y0008088D02*
Y0007912D01*
X0027609Y0008092D02*
Y0007908D01*
X0027600Y0008095D02*
Y0007904D01*
X0027591Y0008098D02*
Y0007902D01*
X0027582Y0008099D02*
Y0007901D01*
X0027573Y0008100D02*
Y0007900D01*
X0027564Y0008100D02*
Y0007900D01*
X0027555Y0008099D02*
Y0007901D01*
X0027546Y0008097D02*
Y0007903D01*
X0027537Y0008094D02*
Y0007905D01*
X0027528Y0008091D02*
Y0007909D01*
X0027519Y0008086D02*
Y0007914D01*
X0027510Y0008080D02*
Y0007920D01*
X0027501Y0008072D02*
Y0007927D01*
X0027492Y0008062D02*
Y0007937D01*
X0027598Y0007904D02*
X0027542D01*
X0027483Y0013929D02*
Y0013831D01*
X0027474Y0013908D02*
Y0013852D01*
X0027607Y0013973D02*
X0027533D01*
X0027624Y0013964D02*
X0027516D01*
X0027636Y0013955D02*
X0027504D01*
X0027645Y0013946D02*
X0027495D01*
X0027652Y0013937D02*
X0027488D01*
X0027658Y0013928D02*
X0027482D01*
X0027662Y0013919D02*
X0027478D01*
X0027665Y0013910D02*
X0027474D01*
X0027668Y0013901D02*
X0027472D01*
X0027669Y0013892D02*
X0027471D01*
X0027670Y0013883D02*
X0027470D01*
X0027670Y0013874D02*
X0027470D01*
X0027669Y0013865D02*
X0027471D01*
X0027667Y0013856D02*
X0027473D01*
X0027664Y0013847D02*
X0027475D01*
X0027661Y0013838D02*
X0027479D01*
X0027656Y0013829D02*
X0027484D01*
X0027650Y0013820D02*
X0027490D01*
X0027642Y0013811D02*
X0027497D01*
X0027632Y0013802D02*
X0027507D01*
X0027619Y0013793D02*
X0027521D01*
X0027663Y0013917D02*
Y0013843D01*
X0027654Y0013934D02*
Y0013826D01*
X0027645Y0013946D02*
Y0013814D01*
X0027636Y0013955D02*
Y0013805D01*
X0027627Y0013962D02*
Y0013798D01*
X0027618Y0013968D02*
Y0013792D01*
X0027609Y0013972D02*
Y0013788D01*
X0027600Y0013975D02*
Y0013784D01*
X0027591Y0013978D02*
Y0013782D01*
X0027582Y0013979D02*
Y0013781D01*
X0027573Y0013980D02*
Y0013780D01*
X0027564Y0013980D02*
Y0013780D01*
X0027555Y0013979D02*
Y0013781D01*
X0027546Y0013977D02*
Y0013783D01*
X0027537Y0013974D02*
Y0013785D01*
X0027528Y0013971D02*
Y0013789D01*
X0027519Y0013966D02*
Y0013794D01*
X0027510Y0013960D02*
Y0013800D01*
X0027501Y0013952D02*
Y0013807D01*
X0027492Y0013942D02*
Y0013817D01*
X0027598Y0013784D02*
X0027542D01*
X0027483Y0009729D02*
Y0009631D01*
X0027474Y0009708D02*
Y0009652D01*
X0027607Y0009773D02*
X0027533D01*
X0027624Y0009764D02*
X0027516D01*
X0027636Y0009755D02*
X0027504D01*
X0027645Y0009746D02*
X0027495D01*
X0027652Y0009737D02*
X0027488D01*
X0027658Y0009728D02*
X0027482D01*
X0027662Y0009719D02*
X0027478D01*
X0027665Y0009710D02*
X0027474D01*
X0027668Y0009701D02*
X0027472D01*
X0027669Y0009692D02*
X0027471D01*
X0027670Y0009683D02*
X0027470D01*
X0027670Y0009674D02*
X0027470D01*
X0027669Y0009665D02*
X0027471D01*
X0027667Y0009656D02*
X0027473D01*
X0027664Y0009647D02*
X0027475D01*
X0027661Y0009638D02*
X0027479D01*
X0027656Y0009629D02*
X0027484D01*
X0027650Y0009620D02*
X0027490D01*
X0027642Y0009611D02*
X0027497D01*
X0027632Y0009602D02*
X0027507D01*
X0027619Y0009593D02*
X0027521D01*
X0027663Y0009717D02*
Y0009643D01*
X0027654Y0009734D02*
Y0009626D01*
X0027645Y0009746D02*
Y0009614D01*
X0027636Y0009755D02*
Y0009605D01*
X0027627Y0009762D02*
Y0009598D01*
X0027618Y0009768D02*
Y0009592D01*
X0027609Y0009772D02*
Y0009588D01*
X0027600Y0009775D02*
Y0009584D01*
X0027591Y0009778D02*
Y0009582D01*
X0027582Y0009779D02*
Y0009581D01*
X0027573Y0009780D02*
Y0009580D01*
X0027564Y0009780D02*
Y0009580D01*
X0027555Y0009779D02*
Y0009581D01*
X0027546Y0009777D02*
Y0009583D01*
X0027537Y0009774D02*
Y0009585D01*
X0027528Y0009771D02*
Y0009589D01*
X0027519Y0009766D02*
Y0009594D01*
X0027510Y0009760D02*
Y0009600D01*
X0027501Y0009752D02*
Y0009607D01*
X0027492Y0009742D02*
Y0009617D01*
X0027598Y0009584D02*
X0027542D01*
X0027483Y0011409D02*
Y0011311D01*
X0027474Y0011388D02*
Y0011332D01*
X0027607Y0011453D02*
X0027533D01*
X0027624Y0011444D02*
X0027516D01*
X0027636Y0011435D02*
X0027504D01*
X0027645Y0011426D02*
X0027495D01*
X0027652Y0011417D02*
X0027488D01*
X0027658Y0011408D02*
X0027482D01*
X0027662Y0011399D02*
X0027478D01*
X0027665Y0011390D02*
X0027474D01*
X0027668Y0011381D02*
X0027472D01*
X0027669Y0011372D02*
X0027471D01*
X0027670Y0011363D02*
X0027470D01*
X0027670Y0011354D02*
X0027470D01*
X0027669Y0011345D02*
X0027471D01*
X0027667Y0011336D02*
X0027473D01*
X0027664Y0011327D02*
X0027475D01*
X0027661Y0011318D02*
X0027479D01*
X0027656Y0011309D02*
X0027484D01*
X0027650Y0011300D02*
X0027490D01*
X0027642Y0011291D02*
X0027497D01*
X0027632Y0011282D02*
X0027507D01*
X0027619Y0011273D02*
X0027521D01*
X0027663Y0011397D02*
Y0011323D01*
X0027654Y0011414D02*
Y0011306D01*
X0027645Y0011426D02*
Y0011294D01*
X0027636Y0011435D02*
Y0011285D01*
X0027627Y0011442D02*
Y0011278D01*
X0027618Y0011448D02*
Y0011272D01*
X0027609Y0011452D02*
Y0011268D01*
X0027600Y0011455D02*
Y0011264D01*
X0027591Y0011458D02*
Y0011262D01*
X0027582Y0011459D02*
Y0011261D01*
X0027573Y0011460D02*
Y0011260D01*
X0027564Y0011460D02*
Y0011260D01*
X0027555Y0011459D02*
Y0011261D01*
X0027546Y0011457D02*
Y0011263D01*
X0027537Y0011454D02*
Y0011265D01*
X0027528Y0011451D02*
Y0011269D01*
X0027519Y0011446D02*
Y0011274D01*
X0027510Y0011440D02*
Y0011280D01*
X0027501Y0011432D02*
Y0011287D01*
X0027492Y0011422D02*
Y0011297D01*
X0027598Y0011264D02*
X0027542D01*
X0010852Y0011434D02*
X0010655D01*
Y0010253D01*
X0011836D01*
Y0011434D01*
X0010852D01*
X0013703Y0009429D02*
Y0009331D01*
X0013694Y0009408D02*
Y0009352D01*
X0013827Y0009473D02*
X0013753D01*
X0013844Y0009464D02*
X0013736D01*
X0013856Y0009455D02*
X0013724D01*
X0013865Y0009446D02*
X0013715D01*
X0013872Y0009437D02*
X0013708D01*
X0013878Y0009428D02*
X0013702D01*
X0013882Y0009419D02*
X0013698D01*
X0013885Y0009410D02*
X0013694D01*
X0013888Y0009401D02*
X0013692D01*
X0013889Y0009392D02*
X0013691D01*
X0013890Y0009383D02*
X0013690D01*
X0013890Y0009374D02*
X0013690D01*
X0013889Y0009365D02*
X0013691D01*
X0013887Y0009356D02*
X0013693D01*
X0013884Y0009347D02*
X0013695D01*
X0013881Y0009338D02*
X0013699D01*
X0013876Y0009329D02*
X0013704D01*
X0013870Y0009320D02*
X0013710D01*
X0013862Y0009311D02*
X0013717D01*
X0013852Y0009302D02*
X0013727D01*
X0013839Y0009293D02*
X0013741D01*
X0013883Y0009417D02*
Y0009343D01*
X0013874Y0009434D02*
Y0009326D01*
X0013865Y0009446D02*
Y0009314D01*
X0013856Y0009455D02*
Y0009305D01*
X0013847Y0009462D02*
Y0009298D01*
X0013838Y0009468D02*
Y0009292D01*
X0013829Y0009472D02*
Y0009288D01*
X0013820Y0009475D02*
Y0009284D01*
X0013811Y0009478D02*
Y0009282D01*
X0013802Y0009479D02*
Y0009281D01*
X0013793Y0009480D02*
Y0009280D01*
X0013784Y0009480D02*
Y0009280D01*
X0013775Y0009479D02*
Y0009281D01*
X0013766Y0009477D02*
Y0009283D01*
X0013757Y0009474D02*
Y0009285D01*
X0013748Y0009471D02*
Y0009289D01*
X0013739Y0009466D02*
Y0009294D01*
X0013730Y0009460D02*
Y0009300D01*
X0013721Y0009452D02*
Y0009307D01*
X0013712Y0009442D02*
Y0009317D01*
X0013818Y0009284D02*
X0013762D01*
G01X0027570Y0012300D02*
G03X0027470Y0012200I0000000J0000100D01*
G01X0027670D02*
G03X0027570Y0012300I0000100J0000000D01*
Y0012100D02*
G03X0027670Y0012200I0000000J0000100D01*
G01X0027470D02*
G03X0027570Y0012100I0000100J0000000D01*
Y0013140D02*
G03X0027470Y0013040I0000000J0000100D01*
G01X0027670D02*
G03X0027570Y0013140I0000100J0000000D01*
Y0012940D02*
G03X0027670Y0013040I0000000J0000100D01*
G01X0027470D02*
G03X0027570Y0012940I0000100J0000000D01*
G01X0028840Y0008520D02*
G03X0028740Y0008420I0000000J0000100D01*
G01X0028940D02*
G03X0028840Y0008520I0000100J0000000D01*
Y0008320D02*
G03X0028940Y0008420I0000000J0000100D01*
G01X0028740D02*
G03X0028840Y0008320I0000100J0000000D01*
G01X0013750Y0012530D02*
G03X0013650Y0012430I0000000J0000100D01*
G01X0013850D02*
G03X0013750Y0012530I0000100J0000000D01*
Y0012330D02*
G03X0013850Y0012430I0000000J0000100D01*
G01X0013650D02*
G03X0013750Y0012330I0000100J0000000D01*
G01X0027570Y0010620D02*
G03X0027470Y0010520I0000000J0000100D01*
G01X0027670D02*
G03X0027570Y0010620I0000100J0000000D01*
Y0010420D02*
G03X0027670Y0010520I0000000J0000100D01*
G01X0027470D02*
G03X0027570Y0010420I0000100J0000000D01*
Y0008940D02*
G03X0027470Y0008840I0000000J0000100D01*
G01X0027670D02*
G03X0027570Y0008940I0000100J0000000D01*
Y0008740D02*
G03X0027670Y0008840I0000000J0000100D01*
G01X0027470D02*
G03X0027570Y0008740I0000100J0000000D01*
Y0008100D02*
G03X0027470Y0008000I0000000J0000100D01*
G01X0027670D02*
G03X0027570Y0008100I0000100J0000000D01*
Y0007900D02*
G03X0027670Y0008000I0000000J0000100D01*
G01X0027470D02*
G03X0027570Y0007900I0000100J0000000D01*
Y0013980D02*
G03X0027470Y0013880I0000000J0000100D01*
G01X0027670D02*
G03X0027570Y0013980I0000100J0000000D01*
Y0013780D02*
G03X0027670Y0013880I0000000J0000100D01*
G01X0027470D02*
G03X0027570Y0013780I0000100J0000000D01*
Y0009780D02*
G03X0027470Y0009680I0000000J0000100D01*
G01X0027670D02*
G03X0027570Y0009780I0000100J0000000D01*
Y0009580D02*
G03X0027670Y0009680I0000000J0000100D01*
G01X0027470D02*
G03X0027570Y0009580I0000100J0000000D01*
Y0011460D02*
G03X0027470Y0011360I0000000J0000100D01*
G01X0027670D02*
G03X0027570Y0011460I0000100J0000000D01*
Y0011260D02*
G03X0027670Y0011360I0000000J0000100D01*
G01X0027470D02*
G03X0027570Y0011260I0000100J0000000D01*
G01X0013790Y0009480D02*
G03X0013690Y0009380I0000000J0000100D01*
G01X0013890D02*
G03X0013790Y0009480I0000100J0000000D01*
Y0009280D02*
G03X0013890Y0009380I0000000J0000100D01*
G01X0013690D02*
G03X0013790Y0009280I0000100J0000000D01*
G54D75*
G01X0004680Y0006054D02*
X0004652Y0005999D01*
X0004485D01*
X0004458Y0006054D01*
Y0006277D01*
X0004485Y0006332D01*
X0004652D01*
X0004680Y0006277D01*
X0004310Y0006054D02*
X0004282Y0005999D01*
X0004115D01*
X0004088Y0006054D01*
Y0006277D01*
X0004115Y0006332D01*
X0004282D01*
X0004310Y0006277D01*
X0003940Y0006110D02*
X0003718D01*
X0003940Y0005999D02*
Y0006165D01*
X0003857Y0006332D01*
X0003801D01*
X0003718Y0006165D01*
Y0005999D01*
X0003570Y0005888D02*
X0003348D01*
X0003005Y0005999D02*
Y0006332D01*
X0002978Y0005999D02*
X0003144D01*
X0003200Y0006110D01*
Y0006221D01*
X0003144Y0006332D01*
X0002978D01*
X0002635Y0005999D02*
Y0006332D01*
X0002608Y0005999D02*
X0002774D01*
X0002830Y0006110D01*
Y0006221D01*
X0002774Y0006332D01*
X0002608D01*
X0002460D02*
Y0006221D01*
X0002349Y0005999D01*
X0002238Y0006221D01*
Y0006332D01*
X0026403Y0012859D02*
X0026570Y0013192D01*
X0026348D01*
X0026117Y0013025D02*
X0026200Y0012859D01*
X0025978Y0013025D02*
X0026144D01*
X0026200Y0013081D01*
Y0013137D01*
X0026144Y0013192D01*
X0025978D01*
Y0012859D01*
X0024904Y0004800D02*
X0024793Y0004689D01*
X0024904Y0004578D01*
X0028991Y0007466D02*
Y0007355D01*
Y0007411D02*
X0028658D01*
X0028713Y0007355D01*
X0028880Y0006958D02*
X0028936D01*
X0028991Y0006985D01*
Y0007097D01*
X0028936Y0007124D01*
X0028658D01*
Y0007152D02*
Y0007041D01*
X0018299Y0004820D02*
X0018188Y0004709D01*
X0018299Y0004598D01*
X0013251Y0012745D02*
X0013196Y0012690D01*
X0013140Y0012662D01*
X0013029D01*
X0012973Y0012690D01*
X0012918Y0012745D01*
Y0012801D01*
X0012973Y0012856D01*
X0013029Y0012884D01*
X0013140D01*
X0013196Y0012856D01*
X0013251Y0012801D01*
Y0012745D01*
Y0012514D02*
Y0012403D01*
Y0012459D02*
X0012918D01*
X0012973Y0012403D01*
X0013196Y0012200D02*
X0013251Y0012172D01*
Y0012005D01*
X0013196Y0011978D01*
X0012973D01*
X0012918Y0012005D01*
Y0012172D01*
X0012973Y0012200D01*
X0023436Y0009564D02*
X0023325Y0009453D01*
X0023436Y0009342D01*
X0026570Y0010450D02*
X0026348D01*
X0026459Y0010672D01*
X0026514D01*
Y0010339D01*
X0026117Y0010505D02*
X0026200Y0010339D01*
X0025978Y0010505D02*
X0026144D01*
X0026200Y0010561D01*
Y0010617D01*
X0026144Y0010672D01*
X0025978D01*
Y0010339D01*
X0026560Y0008689D02*
X0026338D01*
X0026560Y0008911D01*
Y0008967D01*
X0026532Y0009022D01*
X0026365D01*
X0026338Y0008967D01*
X0026107Y0008855D02*
X0026190Y0008689D01*
X0025968Y0008855D02*
X0026134D01*
X0026190Y0008911D01*
Y0008967D01*
X0026134Y0009022D01*
X0025968D01*
Y0008689D01*
X0004721Y0010611D02*
X0004388D01*
Y0010722D02*
Y0010500D01*
X0004721Y0010352D02*
X0004388Y0010185D01*
Y0010352D02*
X0004721Y0010185D01*
X0004554Y0009954D02*
Y0009788D01*
X0004721Y0010010D02*
Y0009788D01*
X0004388D01*
Y0010010D01*
X0004832Y0009640D02*
Y0009418D01*
X0004721Y0009075D02*
X0004388D01*
X0004721Y0009048D02*
Y0009214D01*
X0004610Y0009270D01*
X0004499D01*
X0004388Y0009214D01*
Y0009048D01*
X0004721Y0008705D02*
X0004388D01*
X0004721Y0008678D02*
Y0008844D01*
X0004610Y0008900D01*
X0004499D01*
X0004388Y0008844D01*
Y0008678D01*
Y0008530D02*
X0004499D01*
X0004721Y0008419D01*
X0004499Y0008308D01*
X0004388D01*
X0026504Y0007859D02*
X0026393D01*
X0026449D02*
Y0008192D01*
X0026393Y0008137D01*
X0026107Y0008025D02*
X0026190Y0007859D01*
X0025968Y0008025D02*
X0026134D01*
X0026190Y0008081D01*
Y0008137D01*
X0026134Y0008192D01*
X0025968D01*
Y0007859D01*
X0012719Y0010550D02*
X0012608Y0010439D01*
X0012719Y0010328D01*
X0026542Y0013865D02*
X0026570Y0013921D01*
Y0013977D01*
X0026542Y0014032D01*
X0026375D01*
X0026348Y0013977D01*
Y0013921D01*
X0026375Y0013865D01*
X0026542D01*
X0026570Y0013810D01*
Y0013754D01*
X0026542Y0013699D01*
X0026375D01*
X0026348Y0013754D01*
Y0013810D01*
X0026375Y0013865D01*
X0026117D02*
X0026200Y0013699D01*
X0025978Y0013865D02*
X0026144D01*
X0026200Y0013921D01*
Y0013977D01*
X0026144Y0014032D01*
X0025978D01*
Y0013699D01*
X0026375Y0012185D02*
X0026542D01*
X0026570Y0012130D01*
Y0012074D01*
X0026542Y0012019D01*
X0026375D01*
X0026348Y0012074D01*
Y0012130D01*
X0026459Y0012352D01*
X0026117Y0012185D02*
X0026200Y0012019D01*
X0025978Y0012185D02*
X0026144D01*
X0026200Y0012241D01*
Y0012297D01*
X0026144Y0012352D01*
X0025978D01*
Y0012019D01*
X0013164Y0009662D02*
Y0009495D01*
X0013109Y0009468D01*
X0013053D01*
X0012998Y0009495D01*
Y0009662D01*
X0013053Y0009690D01*
X0013109D01*
X0013331Y0009579D01*
X0013276Y0009320D02*
X0013331Y0009292D01*
Y0009125D01*
X0013276Y0009098D01*
X0013053D01*
X0012998Y0009125D01*
Y0009292D01*
X0013053Y0009320D01*
X0026338Y0009614D02*
X0026393Y0009559D01*
X0026504D01*
X0026560Y0009614D01*
Y0009670D01*
X0026449Y0009781D01*
X0026560Y0009892D01*
X0026338D01*
X0026107Y0009725D02*
X0026190Y0009559D01*
X0025968Y0009725D02*
X0026134D01*
X0026190Y0009781D01*
Y0009837D01*
X0026134Y0009892D01*
X0025968D01*
Y0009559D01*
X0026348Y0011234D02*
X0026375Y0011179D01*
X0026542D01*
X0026570Y0011234D01*
Y0011345D01*
X0026514Y0011401D01*
X0026348D01*
Y0011512D01*
X0026570D01*
X0026117Y0011345D02*
X0026200Y0011179D01*
X0025978Y0011345D02*
X0026144D01*
X0026200Y0011401D01*
Y0011457D01*
X0026144Y0011512D01*
X0025978D01*
Y0011179D01*
X0003433Y0010672D02*
X0003378Y0010644D01*
Y0010478D01*
X0003433Y0010450D01*
X0003489D01*
X0003544Y0010478D01*
Y0010644D01*
X0003600Y0010672D01*
X0003656D01*
X0003711Y0010644D01*
Y0010478D01*
X0003656Y0010450D01*
X0003711Y0010302D02*
X0003378D01*
X0003433Y0010246D01*
X0003544Y0010191D01*
X0003433Y0010135D01*
X0003378Y0010080D01*
X0003711D01*
X0003656Y0009932D02*
X0003711Y0009904D01*
Y0009738D01*
X0003656Y0009710D01*
X0003433D01*
X0003378Y0009738D01*
Y0009904D01*
X0003433Y0009932D01*
X0003711Y0009562D02*
Y0009368D01*
X0003378D01*
X0003822Y0009220D02*
Y0008998D01*
X0003711Y0008655D02*
X0003378D01*
X0003711Y0008628D02*
Y0008794D01*
X0003600Y0008850D01*
X0003489D01*
X0003378Y0008794D01*
Y0008628D01*
X0003711Y0008285D02*
X0003378D01*
X0003711Y0008258D02*
Y0008424D01*
X0003600Y0008480D01*
X0003489D01*
X0003378Y0008424D01*
Y0008258D01*
Y0008110D02*
X0003489D01*
X0003711Y0007999D01*
X0003489Y0007888D01*
X0003378D01*
X0015044Y0010205D02*
X0015072Y0010261D01*
Y0010317D01*
X0015044Y0010372D01*
X0014878D01*
X0014850Y0010317D01*
Y0010261D01*
X0014878Y0010205D01*
X0015044D01*
X0015072Y0010150D01*
Y0010094D01*
X0015044Y0010039D01*
X0014878D01*
X0014850Y0010094D01*
Y0010150D01*
X0014878Y0010205D01*
X0014508Y0010150D02*
Y0010094D01*
X0014535Y0010039D01*
X0014647D01*
X0014674Y0010094D01*
Y0010372D01*
X0014702D02*
X0014591D01*
X0004680Y0016404D02*
X0004652Y0016349D01*
X0004485D01*
X0004458Y0016404D01*
Y0016627D01*
X0004485Y0016682D01*
X0004652D01*
X0004680Y0016627D01*
X0004310Y0016404D02*
X0004282Y0016349D01*
X0004115D01*
X0004088Y0016404D01*
Y0016627D01*
X0004115Y0016682D01*
X0004282D01*
X0004310Y0016627D01*
X0003940Y0016460D02*
X0003718D01*
X0003940Y0016349D02*
Y0016515D01*
X0003857Y0016682D01*
X0003801D01*
X0003718Y0016515D01*
Y0016349D01*
X0003570Y0016238D02*
X0003348D01*
X0003005Y0016349D02*
Y0016682D01*
X0002978Y0016349D02*
X0003144D01*
X0003200Y0016460D01*
Y0016571D01*
X0003144Y0016682D01*
X0002978D01*
X0002635Y0016349D02*
Y0016682D01*
X0002608Y0016349D02*
X0002774D01*
X0002830Y0016460D01*
Y0016571D01*
X0002774Y0016682D01*
X0002608D01*
X0002460D02*
Y0016571D01*
X0002349Y0016349D01*
X0002238Y0016571D01*
Y0016682D01*
X0002591Y0010613D02*
X0002258D01*
Y0010724D02*
Y0010502D01*
Y0010354D02*
X0002591D01*
X0002536Y0010299D01*
X0002313Y0010188D01*
X0002258Y0010132D01*
X0002591D01*
Y0009984D02*
Y0009873D01*
Y0009929D02*
X0002258D01*
Y0009984D02*
Y0009873D01*
X0002702Y0009670D02*
Y0009448D01*
X0002591Y0009105D02*
X0002258D01*
X0002591Y0009078D02*
Y0009244D01*
X0002480Y0009300D01*
X0002369D01*
X0002258Y0009244D01*
Y0009078D01*
X0002591Y0008735D02*
X0002258D01*
X0002591Y0008708D02*
Y0008874D01*
X0002480Y0008930D01*
X0002369D01*
X0002258Y0008874D01*
Y0008708D01*
Y0008560D02*
X0002369D01*
X0002591Y0008449D01*
X0002369Y0008338D01*
X0002258D01*
X0026770Y0012570D02*
X0028370D01*
Y0011830D01*
X0026770D01*
Y0012570D01*
Y0013410D02*
X0028370D01*
Y0012670D01*
X0026770D01*
Y0013410D01*
X0028470Y0007620D02*
X0029210D01*
Y0014260D01*
X0029200Y0014270D01*
X0028470D01*
Y0007620D01*
X0013380Y0011630D02*
Y0013230D01*
X0014120D01*
Y0011630D01*
X0013380D01*
X0026770Y0010890D02*
X0028370D01*
Y0010150D01*
X0026770D01*
Y0010890D01*
X0028370Y0008470D02*
X0026770D01*
Y0009210D01*
X0028370D01*
Y0008470D01*
Y0007630D02*
X0026770D01*
Y0008370D01*
X0028370D01*
Y0007630D01*
X0026770Y0014250D02*
X0028370D01*
Y0013510D01*
X0026770D01*
Y0014250D01*
X0028370Y0009310D02*
X0026770D01*
Y0010050D01*
X0028370D01*
Y0009310D01*
X0026770Y0011730D02*
X0028370D01*
Y0010990D01*
X0026770D01*
Y0011730D01*
X0013420Y0008580D02*
Y0010180D01*
X0014160D01*
Y0008580D01*
X0013420D01*
G54D76*
G01X0022005Y0008972D02*
Y0012909D01*
X0018068D01*
Y0008972D01*
X0022005D01*
G54D77*
G01X0005000Y0013000D02*
X0002000D01*
Y0012000D01*
X0005000D01*
Y0013000D01*
X0005050Y0013050D01*
X0005000Y0014740D02*
X0002000D01*
Y0013740D01*
X0005000D01*
Y0014740D01*
X0005050Y0014790D01*
G54D78*
G01X0024214Y0003966D02*
Y0003616D01*
X0023865Y0003791D01*
Y0003878D01*
X0024389D01*
X0023865Y0003376D02*
X0024302D01*
X0024389Y0003332D01*
Y0003069D01*
X0024302Y0003026D01*
X0023865D01*
X0023673Y0009151D02*
Y0008976D01*
Y0009063D02*
X0023148D01*
X0023236Y0008976D01*
X0023148Y0008648D02*
X0023585D01*
X0023673Y0008604D01*
Y0008342D01*
X0023585Y0008298D01*
X0023148D01*
X0017884Y0003786D02*
Y0003436D01*
X0017534Y0003786D01*
X0017447D01*
X0017359Y0003742D01*
Y0003480D01*
X0017447Y0003436D01*
X0017359Y0003196D02*
X0017796D01*
X0017884Y0003152D01*
Y0002889D01*
X0017796Y0002846D01*
X0017359D01*
X0012095Y0009646D02*
X0012183Y0009734D01*
Y0009909D01*
X0012095Y0009996D01*
X0012008D01*
X0011833Y0009821D01*
X0011658Y0009996D01*
Y0009646D01*
Y0009406D02*
X0012095D01*
X0012183Y0009362D01*
Y0009100D01*
X0012095Y0009056D01*
X0011658D01*
M02*
