*
G04 Mass Parameters ***
*
G04 Image ***
*
%INC:\LCMS2012\PCB\LAYOUT\GERBER23\LCMS2012_JAN_PCB-23.SSB*%
%ICAS*%
%MOIN*%
%IPPOS*%
%ASAXBY*%
G74*%FSLAN2X34Y34*%
*
G04 Aperture Definitions ***
*
%AMTHERMAL49*
1,1,0.1079,0,0,*
1,0,0.0840,0,0,*
21,0,0.1080,0.0100,0,0,45.0*
21,0,0.1080,0.0100,0,0,135.0*%
%AMTHERMAL52*
1,1,0.1019,0,0,*
1,0,0.0780,0,0,*
21,0,0.1020,0.0100,0,0,45.0*
21,0,0.1020,0.0100,0,0,135.0*%
%AMTHERMAL53*
1,1,0.0879,0,0,*
1,0,0.0640,0,0,*
21,0,0.0880,0.0100,0,0,45.0*
21,0,0.0880,0.0100,0,0,135.0*%
%AMTHERMAL57*
1,1,0.1079,0,0,*
1,0,0.0840,0,0,*
21,0,0.1080,0.0100,0,0,225.0*
21,0,0.1080,0.0100,0,0,315.0*%
%AMTHERMAL59*
1,1,0.1019,0,0,*
1,0,0.0780,0,0,*
21,0,0.1020,0.0100,0,0,216.2*
21,0,0.1020,0.0100,0,0,306.2*%
%ADD10C,0.1060*%
%ADD11R,0.0500X0.0500*%
%ADD12C,0.0550*%
%ADD13R,0.0550X0.0550*%
%ADD14O,0.0078X0.0984*%
%ADD15O,0.0984X0.0078*%
%ADD16R,0.0984X0.0078*%
%ADD17O,0.0472X0.0120*%
%ADD18R,0.0472X0.0120*%
%ADD19O,0.0590X0.0130*%
%ADD20R,0.0590X0.0130*%
%ADD21C,0.0394*%
%ADD22C,0.0500*%
%ADD23C,0.0280*%
%ADD24C,0.0100*%
%ADD25C,0.0500*%
%ADD26C,0.0120*%
%ADD27C,0.0500*%
%ADD28C,0.0090*%
%ADD29C,0.0080*%
%ADD30C,0.0300*%
%ADD31C,0.0160*%
%ADD32C,0.0140*%
%ADD33C,0.0130*%
%ADD34C,0.1060*%
%ADD35R,0.0860X0.0860*%
%ADD36R,0.0500X0.0500*%
%ADD37C,0.0550*%
%ADD38R,0.0550X0.0550*%
%ADD39C,0.0394*%
%ADD40R,0.0180X0.0800*%
%ADD41C,0.0500*%
%ADD42C,0.0280*%
%ADD43C,0.0200*%
%ADD44C,0.1140*%
%ADD45C,0.0750*%
%ADD46R,0.0750X0.0750*%
%ADD47C,0.0550*%
%ADD48R,0.0550X0.0550*%
%ADD49THERMAL49*%
%ADD50C,0.0750*%
%ADD51C,0.0708*%
%ADD52THERMAL52*%
%ADD53THERMAL53*%
%ADD54C,0.0400*%
%ADD55C,0.0750*%
%ADD56C,0.1140*%
%ADD57THERMAL57*%
%ADD58C,0.0340*%
%ADD59THERMAL59*%
%ADD60C,0.1110*%
%ADD61R,0.0500X0.0500*%
%ADD62C,0.0550*%
%ADD63R,0.0550X0.0550*%
%ADD64O,0.0078X0.0984*%
%ADD65O,0.0984X0.0078*%
%ADD66R,0.0984X0.0078*%
%ADD67O,0.0472X0.0120*%
%ADD68R,0.0472X0.0120*%
%ADD69O,0.0590X0.0130*%
%ADD70R,0.0590X0.0130*%
%ADD71C,0.0394*%
%ADD72C,0.0550*%
%ADD73C,0.1110*%
%ADD74C,0.0010*%
%ADD75C,0.0060*%
%ADD76C,0.0039*%
%ADD77C,0.0020*%
%ADD78C,0.0098*%
%ADD79C,0.0079*%
%ADD80C,0.0059*%
*
G04 Plot Data ***
*
G54D29*
G01X0019020Y0014612D02*
X0019047Y0014667D01*
X0019214D01*
X0019242Y0014612D01*
Y0014501D01*
X0019186Y0014445D01*
X0019020D01*
Y0014334D01*
X0019242D01*
X0018832Y0014667D02*
X0018721D01*
X0018776D02*
Y0014334D01*
X0018721Y0014389D01*
X0018283Y0014556D02*
Y0014612D01*
X0018311Y0014667D01*
X0018422D01*
X0018450Y0014612D01*
Y0014334D01*
X0018478D02*
X0018366D01*
X0023167Y0014221D02*
X0023334D01*
X0023362Y0014276D01*
Y0014332D01*
X0023334Y0014387D01*
X0023167D01*
X0023140Y0014332D01*
Y0014276D01*
X0023251Y0014054D01*
X0022952Y0014387D02*
X0022841D01*
X0022896D02*
Y0014054D01*
X0022841Y0014109D01*
X0022403Y0014276D02*
Y0014332D01*
X0022431Y0014387D01*
X0022542D01*
X0022570Y0014332D01*
Y0014054D01*
X0022598D02*
X0022486D01*
X0013841Y0007440D02*
Y0007607D01*
X0013785Y0007635D01*
X0013729D01*
X0013674Y0007607D01*
Y0007440D01*
X0013729Y0007412D01*
X0013785D01*
X0014007Y0007523D01*
X0013896Y0008017D02*
X0013952D01*
X0014007Y0007989D01*
Y0007878D01*
X0013952Y0007850D01*
X0013674D01*
Y0007822D02*
Y0007933D01*
X0019387Y0007517D02*
X0019332Y0007572D01*
X0019276Y0007600D01*
X0019165D01*
X0019109Y0007572D01*
X0019054Y0007517D01*
Y0007461D01*
X0019109Y0007406D01*
X0019165Y0007378D01*
X0019276D01*
X0019332Y0007406D01*
X0019387Y0007461D01*
Y0007517D01*
Y0007788D02*
Y0007899D01*
Y0007843D02*
X0019054D01*
X0019109Y0007899D01*
X0019276Y0008337D02*
X0019332D01*
X0019387Y0008309D01*
Y0008198D01*
X0019332Y0008170D01*
X0019054D01*
Y0008142D02*
Y0008253D01*
X0020877Y0007394D02*
Y0007505D01*
Y0007449D02*
X0020544D01*
X0020599Y0007505D01*
X0020877Y0007748D02*
Y0007859D01*
Y0007803D02*
X0020544D01*
X0020599Y0007859D01*
X0020766Y0008297D02*
X0020822D01*
X0020877Y0008269D01*
Y0008158D01*
X0020822Y0008130D01*
X0020544D01*
Y0008102D02*
Y0008213D01*
X0016012Y0014366D02*
X0015790D01*
X0015901Y0014144D01*
X0015956D01*
Y0014477D01*
X0015602D02*
X0015491D01*
X0015546D02*
Y0014144D01*
X0015491Y0014199D01*
X0015053Y0014366D02*
Y0014422D01*
X0015081Y0014477D01*
X0015192D01*
X0015220Y0014422D01*
Y0014144D01*
X0015248D02*
X0015136D01*
X0011705Y0014417D02*
X0011872Y0014084D01*
X0011650D01*
X0011462Y0014417D02*
X0011351D01*
X0011406D02*
Y0014084D01*
X0011351Y0014139D01*
X0010913Y0014306D02*
Y0014362D01*
X0010941Y0014417D01*
X0011052D01*
X0011080Y0014362D01*
Y0014084D01*
X0011108D02*
X0010996D01*
X0025937Y0007418D02*
Y0007640D01*
X0025715Y0007418D01*
X0025659D01*
X0025604Y0007446D01*
Y0007612D01*
X0025659Y0007640D01*
X0025937Y0007828D02*
Y0007939D01*
Y0007883D02*
X0025604D01*
X0025659Y0007939D01*
X0025826Y0008377D02*
X0025882D01*
X0025937Y0008349D01*
Y0008238D01*
X0025882Y0008210D01*
X0025604D01*
Y0008182D02*
Y0008293D01*
X0022320Y0015650D02*
X0022370Y0015600D01*
Y0014600D01*
X0026370D01*
Y0015600D01*
X0022370D01*
X0015110D02*
X0018110D01*
Y0014600D01*
X0015110D01*
Y0015600D01*
X0015060Y0015650D01*
X0010950D02*
X0011000Y0015600D01*
Y0014600D01*
X0015000D01*
Y0015600D01*
X0011000D01*
X0018200Y0015870D02*
X0018250Y0015820D01*
Y0014820D01*
X0022250D01*
Y0015820D01*
X0018250D01*
X0026280Y0007250D02*
Y0004250D01*
X0025280D01*
Y0007250D01*
X0026280D01*
X0026330Y0007300D01*
X0014290Y0007250D02*
Y0004250D01*
X0013290D01*
Y0007250D01*
X0014290D01*
X0014340Y0007300D01*
X0019760Y0007250D02*
Y0004250D01*
X0018760D01*
Y0007250D01*
X0019760D01*
X0019810Y0007300D01*
X0021240Y0007250D02*
Y0004250D01*
X0020240D01*
Y0007250D01*
X0021240D01*
X0021290Y0007300D01*
G54D74*
G01X0022714Y0005619D02*
Y0005520D01*
X0022705Y0005598D02*
Y0005542D01*
X0022840Y0005662D02*
X0022762D01*
X0022857Y0005653D02*
X0022745D01*
X0022869Y0005644D02*
X0022734D01*
X0022877Y0005635D02*
X0022725D01*
X0022884Y0005626D02*
X0022718D01*
X0022890Y0005617D02*
X0022713D01*
X0022894Y0005608D02*
X0022708D01*
X0022897Y0005599D02*
X0022705D01*
X0022900Y0005590D02*
X0022703D01*
X0022901Y0005581D02*
X0022701D01*
X0022902Y0005572D02*
X0022701D01*
X0022901Y0005563D02*
X0022701D01*
X0022900Y0005554D02*
X0022702D01*
X0022899Y0005545D02*
X0022704D01*
X0022896Y0005536D02*
X0022706D01*
X0022892Y0005527D02*
X0022710D01*
X0022887Y0005518D02*
X0022715D01*
X0022881Y0005509D02*
X0022721D01*
X0022874Y0005500D02*
X0022729D01*
X0022864Y0005491D02*
X0022738D01*
X0022851Y0005482D02*
X0022752D01*
X0022894Y0005609D02*
Y0005531D01*
X0022885Y0005626D02*
Y0005514D01*
X0022876Y0005637D02*
Y0005502D01*
X0022867Y0005646D02*
Y0005494D01*
X0022858Y0005653D02*
Y0005487D01*
X0022849Y0005658D02*
Y0005481D01*
X0022840Y0005663D02*
Y0005477D01*
X0022831Y0005666D02*
Y0005474D01*
X0022822Y0005668D02*
Y0005471D01*
X0022813Y0005670D02*
Y0005470D01*
X0022804Y0005670D02*
Y0005469D01*
X0022795Y0005670D02*
Y0005470D01*
X0022786Y0005669D02*
Y0005471D01*
X0022777Y0005667D02*
Y0005472D01*
X0022768Y0005665D02*
Y0005475D01*
X0022759Y0005661D02*
Y0005479D01*
X0022750Y0005656D02*
Y0005484D01*
X0022741Y0005650D02*
Y0005490D01*
X0022732Y0005642D02*
Y0005497D01*
X0022723Y0005633D02*
Y0005507D01*
X0022829Y0005473D02*
X0022773D01*
X0023744Y0005619D02*
Y0005521D01*
X0023735Y0005598D02*
Y0005542D01*
X0023868Y0005663D02*
X0023794D01*
X0023885Y0005654D02*
X0023777D01*
X0023897Y0005645D02*
X0023765D01*
X0023906Y0005636D02*
X0023756D01*
X0023913Y0005627D02*
X0023749D01*
X0023919Y0005618D02*
X0023743D01*
X0023923Y0005609D02*
X0023739D01*
X0023927Y0005600D02*
X0023736D01*
X0023929Y0005591D02*
X0023733D01*
X0023930Y0005582D02*
X0023732D01*
X0023931Y0005573D02*
X0023731D01*
X0023931Y0005564D02*
X0023731D01*
X0023930Y0005555D02*
X0023732D01*
X0023928Y0005546D02*
X0023734D01*
X0023926Y0005537D02*
X0023737D01*
X0023922Y0005528D02*
X0023740D01*
X0023917Y0005519D02*
X0023745D01*
X0023911Y0005510D02*
X0023751D01*
X0023904Y0005501D02*
X0023759D01*
X0023894Y0005492D02*
X0023769D01*
X0023880Y0005483D02*
X0023782D01*
X0023924Y0005607D02*
Y0005533D01*
X0023915Y0005624D02*
Y0005516D01*
X0023906Y0005636D02*
Y0005504D01*
X0023897Y0005645D02*
Y0005495D01*
X0023888Y0005652D02*
Y0005488D01*
X0023879Y0005658D02*
Y0005482D01*
X0023870Y0005662D02*
Y0005478D01*
X0023861Y0005665D02*
Y0005474D01*
X0023852Y0005668D02*
Y0005472D01*
X0023843Y0005669D02*
Y0005471D01*
X0023834Y0005670D02*
Y0005470D01*
X0023825Y0005670D02*
Y0005470D01*
X0023816Y0005669D02*
Y0005471D01*
X0023807Y0005667D02*
Y0005473D01*
X0023798Y0005664D02*
Y0005475D01*
X0023789Y0005661D02*
Y0005479D01*
X0023780Y0005656D02*
Y0005484D01*
X0023771Y0005650D02*
Y0005490D01*
X0023762Y0005642D02*
Y0005497D01*
X0023753Y0005632D02*
Y0005507D01*
X0023859Y0005474D02*
X0023803D01*
X0019902Y0010559D02*
Y0010460D01*
X0019893Y0010538D02*
Y0010482D01*
X0020029Y0010602D02*
X0019951D01*
X0020046Y0010593D02*
X0019934D01*
X0020057Y0010584D02*
X0019922D01*
X0020066Y0010575D02*
X0019914D01*
X0020073Y0010566D02*
X0019907D01*
X0020078Y0010557D02*
X0019901D01*
X0020083Y0010548D02*
X0019897D01*
X0020086Y0010539D02*
X0019894D01*
X0020088Y0010530D02*
X0019891D01*
X0020090Y0010521D02*
X0019890D01*
X0020090Y0010512D02*
X0019889D01*
X0020090Y0010503D02*
X0019890D01*
X0020089Y0010494D02*
X0019891D01*
X0020087Y0010485D02*
X0019892D01*
X0020085Y0010476D02*
X0019895D01*
X0020081Y0010467D02*
X0019899D01*
X0020076Y0010458D02*
X0019904D01*
X0020070Y0010449D02*
X0019910D01*
X0020062Y0010440D02*
X0019917D01*
X0020053Y0010431D02*
X0019927D01*
X0020039Y0010422D02*
X0019940D01*
X0020082Y0010549D02*
Y0010471D01*
X0020073Y0010566D02*
Y0010454D01*
X0020064Y0010577D02*
Y0010442D01*
X0020055Y0010586D02*
Y0010434D01*
X0020046Y0010593D02*
Y0010427D01*
X0020037Y0010598D02*
Y0010421D01*
X0020028Y0010603D02*
Y0010417D01*
X0020019Y0010606D02*
Y0010414D01*
X0020010Y0010608D02*
Y0010411D01*
X0020001Y0010610D02*
Y0010410D01*
X0019992Y0010610D02*
Y0010409D01*
X0019983Y0010610D02*
Y0010410D01*
X0019974Y0010609D02*
Y0010411D01*
X0019965Y0010607D02*
Y0010412D01*
X0019956Y0010605D02*
Y0010415D01*
X0019947Y0010601D02*
Y0010419D01*
X0019938Y0010596D02*
Y0010424D01*
X0019929Y0010590D02*
Y0010430D01*
X0019920Y0010582D02*
Y0010437D01*
X0019911Y0010573D02*
Y0010447D01*
X0020018Y0010413D02*
X0019962D01*
X0011822Y0010849D02*
Y0010750D01*
X0011813Y0010828D02*
Y0010772D01*
X0011949Y0010892D02*
X0011871D01*
X0011966Y0010883D02*
X0011854D01*
X0011977Y0010874D02*
X0011842D01*
X0011986Y0010865D02*
X0011834D01*
X0011993Y0010856D02*
X0011827D01*
X0011998Y0010847D02*
X0011821D01*
X0012003Y0010838D02*
X0011817D01*
X0012006Y0010829D02*
X0011814D01*
X0012008Y0010820D02*
X0011811D01*
X0012010Y0010811D02*
X0011810D01*
X0012010Y0010802D02*
X0011809D01*
X0012010Y0010793D02*
X0011810D01*
X0012009Y0010784D02*
X0011811D01*
X0012007Y0010775D02*
X0011812D01*
X0012005Y0010766D02*
X0011815D01*
X0012001Y0010757D02*
X0011819D01*
X0011996Y0010748D02*
X0011824D01*
X0011990Y0010739D02*
X0011830D01*
X0011982Y0010730D02*
X0011837D01*
X0011973Y0010721D02*
X0011847D01*
X0011959Y0010712D02*
X0011860D01*
X0012002Y0010839D02*
Y0010761D01*
X0011993Y0010856D02*
Y0010744D01*
X0011984Y0010867D02*
Y0010732D01*
X0011975Y0010876D02*
Y0010724D01*
X0011966Y0010883D02*
Y0010717D01*
X0011957Y0010888D02*
Y0010711D01*
X0011948Y0010893D02*
Y0010707D01*
X0011939Y0010896D02*
Y0010704D01*
X0011930Y0010898D02*
Y0010701D01*
X0011921Y0010900D02*
Y0010700D01*
X0011912Y0010900D02*
Y0010699D01*
X0011903Y0010900D02*
Y0010700D01*
X0011894Y0010899D02*
Y0010701D01*
X0011885Y0010897D02*
Y0010702D01*
X0011876Y0010895D02*
Y0010705D01*
X0011867Y0010891D02*
Y0010709D01*
X0011858Y0010886D02*
Y0010714D01*
X0011849Y0010880D02*
Y0010720D01*
X0011840Y0010872D02*
Y0010727D01*
X0011831Y0010863D02*
Y0010737D01*
X0011938Y0010703D02*
X0011882D01*
X0010593Y0010859D02*
Y0010761D01*
X0010584Y0010838D02*
Y0010782D01*
X0010717Y0010903D02*
X0010643D01*
X0010734Y0010894D02*
X0010626D01*
X0010746Y0010885D02*
X0010614D01*
X0010755Y0010876D02*
X0010605D01*
X0010762Y0010867D02*
X0010598D01*
X0010768Y0010858D02*
X0010592D01*
X0010772Y0010849D02*
X0010588D01*
X0010775Y0010840D02*
X0010584D01*
X0010778Y0010831D02*
X0010582D01*
X0010779Y0010822D02*
X0010581D01*
X0010780Y0010813D02*
X0010580D01*
X0010780Y0010804D02*
X0010580D01*
X0010779Y0010795D02*
X0010581D01*
X0010777Y0010786D02*
X0010583D01*
X0010774Y0010777D02*
X0010585D01*
X0010771Y0010768D02*
X0010589D01*
X0010766Y0010759D02*
X0010594D01*
X0010760Y0010750D02*
X0010600D01*
X0010752Y0010741D02*
X0010607D01*
X0010742Y0010732D02*
X0010617D01*
X0010729Y0010723D02*
X0010631D01*
X0010773Y0010847D02*
Y0010773D01*
X0010764Y0010864D02*
Y0010756D01*
X0010755Y0010876D02*
Y0010744D01*
X0010746Y0010885D02*
Y0010735D01*
X0010737Y0010892D02*
Y0010728D01*
X0010728Y0010898D02*
Y0010722D01*
X0010719Y0010902D02*
Y0010718D01*
X0010710Y0010905D02*
Y0010714D01*
X0010701Y0010908D02*
Y0010712D01*
X0010692Y0010909D02*
Y0010711D01*
X0010683Y0010910D02*
Y0010710D01*
X0010674Y0010910D02*
Y0010710D01*
X0010665Y0010909D02*
Y0010711D01*
X0010656Y0010907D02*
Y0010713D01*
X0010647Y0010904D02*
Y0010715D01*
X0010638Y0010901D02*
Y0010719D01*
X0010629Y0010896D02*
Y0010724D01*
X0010620Y0010890D02*
Y0010730D01*
X0010611Y0010882D02*
Y0010737D01*
X0010602Y0010872D02*
Y0010747D01*
X0010708Y0010714D02*
X0010652D01*
X0019908Y0012039D02*
Y0011941D01*
X0019899Y0012018D02*
Y0011962D01*
X0020032Y0012083D02*
X0019958D01*
X0020049Y0012074D02*
X0019941D01*
X0020061Y0012065D02*
X0019929D01*
X0020070Y0012056D02*
X0019920D01*
X0020077Y0012047D02*
X0019913D01*
X0020083Y0012038D02*
X0019907D01*
X0020087Y0012029D02*
X0019903D01*
X0020091Y0012020D02*
X0019900D01*
X0020093Y0012011D02*
X0019897D01*
X0020094Y0012002D02*
X0019896D01*
X0020095Y0011993D02*
X0019895D01*
X0020095Y0011984D02*
X0019895D01*
X0020094Y0011975D02*
X0019896D01*
X0020092Y0011966D02*
X0019898D01*
X0020090Y0011957D02*
X0019901D01*
X0020086Y0011948D02*
X0019904D01*
X0020081Y0011939D02*
X0019909D01*
X0020075Y0011930D02*
X0019915D01*
X0020068Y0011921D02*
X0019923D01*
X0020058Y0011912D02*
X0019933D01*
X0020044Y0011903D02*
X0019946D01*
X0020088Y0012027D02*
Y0011953D01*
X0020079Y0012044D02*
Y0011936D01*
X0020070Y0012056D02*
Y0011924D01*
X0020061Y0012065D02*
Y0011915D01*
X0020052Y0012072D02*
Y0011908D01*
X0020043Y0012078D02*
Y0011902D01*
X0020034Y0012082D02*
Y0011898D01*
X0020025Y0012085D02*
Y0011894D01*
X0020016Y0012088D02*
Y0011892D01*
X0020007Y0012089D02*
Y0011891D01*
X0019998Y0012090D02*
Y0011890D01*
X0019989Y0012090D02*
Y0011890D01*
X0019980Y0012089D02*
Y0011891D01*
X0019971Y0012087D02*
Y0011893D01*
X0019962Y0012084D02*
Y0011895D01*
X0019953Y0012081D02*
Y0011899D01*
X0019944Y0012076D02*
Y0011904D01*
X0019935Y0012070D02*
Y0011910D01*
X0019926Y0012062D02*
Y0011917D01*
X0019917Y0012052D02*
Y0011927D01*
X0020023Y0011894D02*
X0019967D01*
X0017143Y0005609D02*
Y0005511D01*
X0017134Y0005588D02*
Y0005532D01*
X0017267Y0005653D02*
X0017193D01*
X0017284Y0005644D02*
X0017176D01*
X0017296Y0005635D02*
X0017164D01*
X0017305Y0005626D02*
X0017155D01*
X0017312Y0005617D02*
X0017148D01*
X0017318Y0005608D02*
X0017142D01*
X0017322Y0005599D02*
X0017138D01*
X0017326Y0005590D02*
X0017135D01*
X0017328Y0005581D02*
X0017132D01*
X0017329Y0005572D02*
X0017131D01*
X0017330Y0005563D02*
X0017130D01*
X0017330Y0005554D02*
X0017130D01*
X0017329Y0005545D02*
X0017131D01*
X0017327Y0005536D02*
X0017133D01*
X0017325Y0005527D02*
X0017136D01*
X0017321Y0005518D02*
X0017139D01*
X0017316Y0005509D02*
X0017144D01*
X0017310Y0005500D02*
X0017150D01*
X0017303Y0005491D02*
X0017158D01*
X0017293Y0005482D02*
X0017168D01*
X0017279Y0005473D02*
X0017181D01*
X0017323Y0005597D02*
Y0005523D01*
X0017314Y0005614D02*
Y0005506D01*
X0017305Y0005626D02*
Y0005494D01*
X0017296Y0005635D02*
Y0005485D01*
X0017287Y0005642D02*
Y0005478D01*
X0017278Y0005648D02*
Y0005472D01*
X0017269Y0005652D02*
Y0005468D01*
X0017260Y0005655D02*
Y0005464D01*
X0017251Y0005658D02*
Y0005462D01*
X0017242Y0005659D02*
Y0005461D01*
X0017233Y0005660D02*
Y0005460D01*
X0017224Y0005660D02*
Y0005460D01*
X0017215Y0005659D02*
Y0005461D01*
X0017206Y0005657D02*
Y0005463D01*
X0017197Y0005654D02*
Y0005465D01*
X0017188Y0005651D02*
Y0005469D01*
X0017179Y0005646D02*
Y0005474D01*
X0017170Y0005640D02*
Y0005480D01*
X0017161Y0005632D02*
Y0005487D01*
X0017152Y0005622D02*
Y0005497D01*
X0017258Y0005464D02*
X0017202D01*
X0016093Y0005609D02*
Y0005510D01*
X0016084Y0005588D02*
Y0005532D01*
X0016219Y0005652D02*
X0016141D01*
X0016236Y0005643D02*
X0016124D01*
X0016248Y0005634D02*
X0016113D01*
X0016256Y0005625D02*
X0016104D01*
X0016263Y0005616D02*
X0016097D01*
X0016269Y0005607D02*
X0016092D01*
X0016273Y0005598D02*
X0016087D01*
X0016276Y0005589D02*
X0016084D01*
X0016279Y0005580D02*
X0016082D01*
X0016280Y0005571D02*
X0016080D01*
X0016281Y0005562D02*
X0016080D01*
X0016280Y0005553D02*
X0016080D01*
X0016279Y0005544D02*
X0016081D01*
X0016278Y0005535D02*
X0016083D01*
X0016275Y0005526D02*
X0016085D01*
X0016271Y0005517D02*
X0016089D01*
X0016266Y0005508D02*
X0016094D01*
X0016260Y0005499D02*
X0016100D01*
X0016253Y0005490D02*
X0016108D01*
X0016243Y0005481D02*
X0016117D01*
X0016230Y0005472D02*
X0016131D01*
X0016273Y0005599D02*
Y0005521D01*
X0016264Y0005616D02*
Y0005504D01*
X0016255Y0005627D02*
Y0005492D01*
X0016246Y0005636D02*
Y0005484D01*
X0016237Y0005643D02*
Y0005477D01*
X0016228Y0005648D02*
Y0005471D01*
X0016219Y0005653D02*
Y0005467D01*
X0016210Y0005656D02*
Y0005464D01*
X0016201Y0005658D02*
Y0005461D01*
X0016192Y0005660D02*
Y0005460D01*
X0016183Y0005660D02*
Y0005459D01*
X0016174Y0005660D02*
Y0005460D01*
X0016165Y0005659D02*
Y0005461D01*
X0016156Y0005657D02*
Y0005462D01*
X0016147Y0005655D02*
Y0005465D01*
X0016138Y0005651D02*
Y0005469D01*
X0016129Y0005646D02*
Y0005474D01*
X0016120Y0005640D02*
Y0005480D01*
X0016111Y0005632D02*
Y0005487D01*
X0016102Y0005623D02*
Y0005497D01*
X0016208Y0005463D02*
X0016152D01*
G01X0022801Y0005469D02*
G03X0022902Y0005570I0000000J0000101D01*
G03X0022801Y0005671I0000101J0000000D01*
Y0005670D02*
G03X0022701Y0005570I0000000J0000100D01*
G03X0022801Y0005470I0000100J0000000D01*
G01X0023831D02*
G03X0023931Y0005570I0000000J0000100D01*
G03X0023831Y0005670I0000100J0000000D01*
G03X0023731Y0005570I0000000J0000100D01*
G03X0023831Y0005470I0000100J0000000D01*
G01X0019990Y0010409D02*
G03X0020091Y0010510I0000000J0000101D01*
G01X0020090D02*
G03X0019990Y0010610I0000100J0000000D01*
G03X0019890Y0010510I0000000J0000100D01*
G01X0019889D02*
G03X0019990Y0010409I0000101J0000000D01*
G01X0011910Y0010699D02*
G03X0012011Y0010800I0000000J0000101D01*
G01X0012010D02*
G03X0011910Y0010900I0000100J0000000D01*
G03X0011810Y0010800I0000000J0000100D01*
G01X0011809D02*
G03X0011910Y0010699I0000101J0000000D01*
G01X0010680Y0010710D02*
G03X0010780Y0010810I0000000J0000100D01*
G03X0010680Y0010910I0000100J0000000D01*
G03X0010580Y0010810I0000000J0000100D01*
G03X0010680Y0010710I0000100J0000000D01*
G01X0019995Y0011890D02*
G03X0020095Y0011990I0000000J0000100D01*
G03X0019995Y0012090I0000100J0000000D01*
G03X0019895Y0011990I0000000J0000100D01*
G03X0019995Y0011890I0000100J0000000D01*
G01X0017230Y0005460D02*
G03X0017330Y0005560I0000000J0000100D01*
G03X0017230Y0005660I0000100J0000000D01*
G03X0017130Y0005560I0000000J0000100D01*
G03X0017230Y0005460I0000100J0000000D01*
G01X0016180Y0005459D02*
G03X0016281Y0005560I0000000J0000101D01*
G03X0016180Y0005661I0000101J0000000D01*
Y0005660D02*
G03X0016080Y0005560I0000000J0000100D01*
G03X0016180Y0005460I0000100J0000000D01*
G54D75*
G01X0024466Y0005424D02*
Y0005258D01*
X0024521Y0005230D01*
X0024577D01*
X0024632Y0005258D01*
Y0005424D01*
X0024577Y0005452D01*
X0024521D01*
X0024299Y0005341D01*
X0024577Y0005600D02*
X0024632Y0005628D01*
Y0005794D01*
X0024577Y0005822D01*
X0024355D01*
X0024299Y0005794D01*
Y0005628D01*
X0024355Y0005600D01*
X0020184Y0011541D02*
X0020073D01*
X0020129D02*
Y0011208D01*
X0020073Y0011263D01*
X0019870Y0011486D02*
X0019842Y0011541D01*
X0019675D01*
X0019648Y0011486D01*
Y0011263D01*
X0019675Y0011208D01*
X0019842D01*
X0019870Y0011263D01*
X0015426Y0005462D02*
X0015481Y0005407D01*
Y0005296D01*
X0015426Y0005240D01*
X0015370D01*
X0015259Y0005351D01*
X0015148Y0005240D01*
Y0005462D01*
X0015426Y0005610D02*
X0015481Y0005638D01*
Y0005804D01*
X0015426Y0005832D01*
X0015204D01*
X0015148Y0005804D01*
Y0005638D01*
X0015204Y0005610D01*
X0012659Y0011003D02*
X0012992Y0011170D01*
Y0010948D01*
X0012714Y0010800D02*
X0012659Y0010772D01*
Y0010605D01*
X0012714Y0010578D01*
X0012937D01*
X0012992Y0010605D01*
Y0010772D01*
X0012937Y0010800D01*
X0009945Y0011122D02*
X0010001Y0011150D01*
X0010057D01*
X0010112Y0011122D01*
Y0010955D01*
X0010057Y0010928D01*
X0010001D01*
X0009945Y0010955D01*
Y0011122D01*
X0009890Y0011150D01*
X0009834D01*
X0009779Y0011122D01*
Y0010955D01*
X0009834Y0010928D01*
X0009890D01*
X0009945Y0010955D01*
X0009834Y0010780D02*
X0009779Y0010752D01*
Y0010585D01*
X0009834Y0010558D01*
X0010057D01*
X0010112Y0010585D01*
Y0010752D01*
X0010057Y0010780D01*
X0019705Y0012479D02*
X0019928D01*
X0019705Y0012701D01*
Y0012757D01*
X0019733Y0012812D01*
X0019900D01*
X0019928Y0012757D01*
X0020075Y0012534D02*
X0020103Y0012479D01*
X0020270D01*
X0020298Y0012534D01*
Y0012757D01*
X0020270Y0012812D01*
X0020103D01*
X0020075Y0012757D01*
X0022067Y0005482D02*
X0022122Y0005454D01*
Y0005288D01*
X0022067Y0005260D01*
X0021956D01*
X0021900Y0005316D01*
Y0005482D01*
X0021789D01*
Y0005260D01*
X0022067Y0005630D02*
X0022122Y0005658D01*
Y0005824D01*
X0022067Y0005852D01*
X0021845D01*
X0021789Y0005824D01*
Y0005658D01*
X0021845Y0005630D01*
X0017800Y0005790D02*
Y0005568D01*
X0018022Y0005679D01*
Y0005734D01*
X0017689D01*
X0017745Y0005420D02*
X0017689Y0005392D01*
Y0005225D01*
X0017745Y0005198D01*
X0017967D01*
X0018022Y0005225D01*
Y0005392D01*
X0017967Y0005420D01*
X0023401Y0006830D02*
X0022201D01*
Y0004310D01*
X0023401D01*
Y0006830D01*
X0022673D02*
Y0006690D01*
X0022619Y0006830D02*
Y0006690D01*
X0022565Y0006830D02*
Y0006690D01*
X0022511Y0006830D02*
Y0006690D01*
X0022457Y0006830D02*
Y0006690D01*
X0022403Y0006830D02*
Y0006690D01*
X0022349Y0006830D02*
Y0006690D01*
X0022295Y0006830D02*
Y0006690D01*
X0022241Y0006830D02*
Y0006690D01*
X0023401Y0006784D02*
X0022201D01*
X0023267Y0006830D02*
Y0006690D01*
X0023213Y0006830D02*
Y0006690D01*
X0023159Y0006830D02*
Y0006690D01*
X0023105Y0006830D02*
Y0006690D01*
X0023051Y0006830D02*
Y0006690D01*
X0022997Y0006830D02*
Y0006690D01*
X0022943Y0006830D02*
Y0006690D01*
X0022889Y0006830D02*
Y0006690D01*
X0022835Y0006830D02*
Y0006690D01*
X0022781Y0006830D02*
Y0006690D01*
X0022727Y0006830D02*
Y0006690D01*
X0023401Y0006730D02*
X0022201D01*
X0023401Y0006830D02*
X0022201D01*
X0023401D02*
Y0006690D01*
X0022201D01*
Y0006830D02*
Y0006690D01*
X0023375Y0006830D02*
Y0006690D01*
X0023321Y0006830D02*
Y0006690D01*
X0023461Y0006370D02*
Y0004770D01*
X0024201D01*
Y0006370D01*
X0023461D01*
X0018730Y0011110D02*
Y0009910D01*
X0021250D01*
Y0011110D01*
X0018730D01*
X0018870Y0010544D02*
X0018730D01*
X0018870Y0010490D02*
X0018730D01*
X0018870Y0010436D02*
X0018730D01*
X0018870Y0010382D02*
X0018730D01*
X0018870Y0010328D02*
X0018730D01*
X0018870Y0010274D02*
X0018730D01*
X0018870Y0010220D02*
X0018730D01*
X0018870Y0010166D02*
X0018730D01*
X0018870Y0010112D02*
X0018730D01*
X0018870Y0010058D02*
X0018730D01*
X0018870Y0010004D02*
X0018730D01*
X0018870Y0011084D02*
X0018730D01*
X0018870Y0011030D02*
X0018730D01*
X0018870Y0010976D02*
X0018730D01*
X0018870Y0010922D02*
X0018730D01*
X0018870Y0010868D02*
X0018730D01*
X0018870Y0010814D02*
X0018730D01*
X0018870Y0010760D02*
X0018730D01*
X0018870Y0010706D02*
X0018730D01*
X0018870Y0010652D02*
X0018730D01*
X0018870Y0010598D02*
X0018730D01*
X0018870Y0009950D02*
X0018730D01*
Y0011110D02*
Y0009910D01*
X0018870Y0011110D02*
X0018730D01*
X0018870D02*
Y0009910D01*
X0018730D01*
X0018824Y0011110D02*
Y0009910D01*
X0018770Y0011110D02*
Y0009910D01*
X0011310Y0009540D02*
X0012510D01*
Y0012060D01*
X0011310D01*
Y0009540D01*
X0011782Y0009680D02*
Y0009540D01*
X0011728Y0009680D02*
Y0009540D01*
X0011674Y0009680D02*
Y0009540D01*
X0011620Y0009680D02*
Y0009540D01*
X0011566Y0009680D02*
Y0009540D01*
X0011512Y0009680D02*
Y0009540D01*
X0011458Y0009680D02*
Y0009540D01*
X0011404Y0009680D02*
Y0009540D01*
X0011350Y0009680D02*
Y0009540D01*
X0012510Y0009634D02*
X0011310D01*
X0012376Y0009680D02*
Y0009540D01*
X0012322Y0009680D02*
Y0009540D01*
X0012268Y0009680D02*
Y0009540D01*
X0012214Y0009680D02*
Y0009540D01*
X0012160Y0009680D02*
Y0009540D01*
X0012106Y0009680D02*
Y0009540D01*
X0012052Y0009680D02*
Y0009540D01*
X0011998Y0009680D02*
Y0009540D01*
X0011944Y0009680D02*
Y0009540D01*
X0011890Y0009680D02*
Y0009540D01*
X0011836Y0009680D02*
Y0009540D01*
X0012510Y0009580D02*
X0011310D01*
X0012510Y0009540D02*
X0011310D01*
Y0009680D02*
Y0009540D01*
X0012510Y0009680D02*
X0011310D01*
X0012510D02*
Y0009540D01*
X0012484Y0009680D02*
Y0009540D01*
X0012430Y0009680D02*
Y0009540D01*
X0011050Y0010010D02*
Y0011610D01*
X0010310D01*
Y0010010D01*
X0011050D01*
X0020795Y0012360D02*
X0019195D01*
Y0011620D01*
X0020795D01*
Y0012360D01*
X0016860Y0006360D02*
Y0004760D01*
X0017600D01*
Y0006360D01*
X0016860D01*
X0016780Y0006820D02*
X0015580D01*
Y0004300D01*
X0016780D01*
Y0006820D01*
X0016052D02*
Y0006680D01*
X0015998Y0006820D02*
Y0006680D01*
X0015944Y0006820D02*
Y0006680D01*
X0015890Y0006820D02*
Y0006680D01*
X0015836Y0006820D02*
Y0006680D01*
X0015782Y0006820D02*
Y0006680D01*
X0015728Y0006820D02*
Y0006680D01*
X0015674Y0006820D02*
Y0006680D01*
X0015620Y0006820D02*
Y0006680D01*
X0016780Y0006774D02*
X0015580D01*
X0016646Y0006820D02*
Y0006680D01*
X0016592Y0006820D02*
Y0006680D01*
X0016538Y0006820D02*
Y0006680D01*
X0016484Y0006820D02*
Y0006680D01*
X0016430Y0006820D02*
Y0006680D01*
X0016376Y0006820D02*
Y0006680D01*
X0016322Y0006820D02*
Y0006680D01*
X0016268Y0006820D02*
Y0006680D01*
X0016214Y0006820D02*
Y0006680D01*
X0016160Y0006820D02*
Y0006680D01*
X0016106Y0006820D02*
Y0006680D01*
X0016780Y0006720D02*
X0015580D01*
X0016780Y0006820D02*
X0015580D01*
X0016780D02*
Y0006680D01*
X0015580D01*
Y0006820D02*
Y0006680D01*
X0016754Y0006820D02*
Y0006680D01*
X0016700Y0006820D02*
Y0006680D01*
G54D79*
G01X0025887Y0003151D02*
X0025986D01*
X0026576Y0002560D01*
Y0000789D01*
X0025887D01*
X0013092Y0003151D02*
X0012994D01*
X0012403Y0002560D01*
Y0000789D01*
X0013092D01*
X0025887Y0018901D02*
X0025986D01*
X0026576Y0018310D01*
Y0016539D01*
X0025887D01*
X0013092Y0018901D02*
X0012994D01*
X0012403Y0018310D01*
Y0016539D01*
X0013092D01*
G54D80*
G01X0027954Y0017621D02*
X0027692D01*
X0027954Y0017359D01*
Y0017293D01*
X0027922Y0017227D01*
X0027725D01*
X0027692Y0017293D01*
X0027279Y0017424D02*
X0027476D01*
X0027541Y0017359D01*
Y0017293D01*
X0027476Y0017227D01*
X0027279D01*
Y0017621D01*
X0026898Y0017490D02*
Y0017556D01*
X0026931Y0017621D01*
X0027063D01*
X0027095Y0017556D01*
Y0017227D01*
X0027128D02*
X0026997D01*
X0027552Y0002336D02*
X0027618Y0002401D01*
X0027749D01*
X0027814Y0002336D01*
Y0002270D01*
X0027683Y0002139D01*
X0027814Y0002007D01*
X0027552D01*
X0027139Y0002204D02*
X0027336D01*
X0027401Y0002139D01*
Y0002073D01*
X0027336Y0002007D01*
X0027139D01*
Y0002401D01*
X0026758Y0002270D02*
Y0002336D01*
X0026791Y0002401D01*
X0026923D01*
X0026955Y0002336D01*
Y0002007D01*
X0026988D02*
X0026857D01*
M02*
