%
T2C0.0280F200S100
X009020Y010110
X010680Y011920
X011630Y016370
X011910Y012470
X012160Y019120
X013000Y011520
X013030Y010110
X013240Y018220
X014210Y001590
X014240Y004050
X014320Y018240
X014750Y012850
X014960Y006900
X015238Y001442
X015238Y018282
X016150Y018070
X016190Y004000
X016440Y008680
X016790Y017910
X016820Y001690
X017210Y004170
X017240Y006890
X017320Y017440
X018080Y017600
X018440Y004080
X018590Y011985
X018700Y001630
X018710Y018050
X019010Y002430
X019350Y009480
X020280Y018200
X020650Y009480
X021240Y004280
X021505Y011970
X021610Y006900
X021840Y001760
X022801Y004130
X021840Y018000
X023810Y007020
X023840Y004330
X024770Y003970
X025310Y002120
X025360Y018040
T1C0.0140F200S100
X005990Y005960
X006010Y003590
X005990Y011810
X007910Y014760
X009710Y003590
X009810Y005980
X009960Y016880
X010070Y015290
X010640Y016470
X014710Y006350
X015570Y010330
X017540Y008300
X018430Y006700
X017540Y013560
X022540Y008300
X024980Y006770
X022540Y013560
T3C0.0340F200S100
X002450Y011320
X002500Y012500
X002500Y014240
X002700Y001180
X003500Y006940
X003500Y011320
X003500Y012500
X003500Y014240
X002700Y018510
X003520Y015740
X003700Y001180
X003700Y018510
X004500Y012500
X004550Y011320
X004500Y014240
X004700Y001180
X005700Y001180
X005700Y018510
X004700Y018510
X011500Y015100
X012120Y007150
X012120Y008150
X012500Y015100
X013500Y015100
X013790Y004750
X013790Y005750
X013790Y006750
X014500Y015100
X014840Y010840
X015610Y015100
X016610Y015100
X017610Y015100
X018750Y015320
X019260Y004750
X019260Y005750
X019260Y006750
X019750Y015320
X020740Y004750
X020740Y005750
X020740Y006750
X020750Y015320
X021750Y015320
X022870Y015100
X023870Y015100
X024870Y015100
X025780Y004750
X025780Y005750
X025780Y006750
X025870Y015100
T5C0.0980F200S100
X001180Y001180
X001180Y018510
X028350Y001180
X028350Y018510
T4C0.0394F200S100
X012703Y001170
X026277Y001170
X026277Y016920
X012703Y016920
M30
